<?xml version="1.0" encoding="UTF-8"?>
<svg version="1.1" viewBox="0 0 2000 2000" width="100" height="100" xmlns="http://www.w3.org/2000/svg">
<path transform="translate(715,536)" d="m0 0h297l26 1 40 8 21 6 17 6 16 8 12 7 14 10 10 9 8 9 10 16 5 12 4 21 1 9v19l-3 20-4 15-6 16-10 18-10 15-8 10-9 11-13 14h-2v2l-8 7-13 11-18 13-16 10-13 8-14 7-15 7-19 8-27 10-29 7-30 4-18 2h-24l-28-3-10-2-1-1v-7l3-3 28-2 29-8 21-7 28-13 20-11 19-14 14-12 4-2v-2l8-7 7-7 16-20 11-17 7-12 11-26 6-22 3-14 1-9v-35l-4-17-6-13-6-9-9-9-14-9-14-6-23-6-14-2-34-1h-42l-4 1-6 13-11 28-17 41-15 37-10 24-15 38-56 140-26 64-16 39-12 29-13 30-10 24-2 6-1 8v13l2 5 10 6 17 6 18 3 15 4 15 2 7 2 5-1 8-7 7-8 10-10 12-9 9-7 15-10 21-12 25-11 22-7 19-5 11-1h51l16 2 23 6 18 7 17 9 12 8 12 9 12 11 4 8v9l-3 7-8 7h-12l-12-6-13-9-14-8-20-8-12-4-16-3-22-2h-11l-27 3-20 5-18 6-16 8-16 10-9 7-14 12-13 13-6 8h-2l-2 4-8 11-12 19-10 21-10 28-6 24-4 24-1 17v38l2 12 4 12 6 12 11 14 11 9 14 7 22 5h16l14-3 12-3 18-10 11-9 10-10 10-13 10-16 5-11 7-19 7-27 11-49 12-54 9-39 4-8 4-4 4-1h12l8 2 8 6 4 7-1 11-8 37-11 51-13 58-10 44-4 26-1 10v11l3 10 3 3 3 1h14l10-4 10-7 10-8 8-4 7 1 8 6 3 7v8l-3 6-5 7-13 10-16 9-12 5-10 2h-19l-16-2-9-6-7-8-5-10-2-5v-44l-3 1-10 19-10 13-15 15-13 10-14 9-17 7-13 3-19 1-26-3-17-3-16-8-12-7-12-10v-2l-3-1-9-11-10-16-8-21-5-23-1-12v-33l1-26 5-28 5-20 8-23 8-18 8-16 6-11 7-10 4-7h-28l-78 1-57 2-136 1-9-1-1-2 1-9 3-6 6-5 11-2 9-1 11-3 32-5 6-2 14-3 13-5 8-6h2l2-4 9-14 10-22 11-29 13-32 11-27 11-28 13-32 11-28 14-35 14-34 10-25 18-44 10-24 26-64 14-33 6-17 2-9v-15l-5-6-10-4-24-6-25-5-17-3-3-3 1-10 6-8z" fill="#2F2F2F"/>
</svg>
